<svg width="28" height="28" viewBox="0 0 28 28" fill="none" xmlns="http://www.w3.org/2000/svg">
<g clip-path="url(#clip0_3_74)">
<path d="M8.16667 12.8333V22.1667C8.16667 22.4761 8.04375 22.7728 7.82496 22.9916C7.60617 23.2104 7.30942 23.3333 7 23.3333H4.66667C4.35725 23.3333 4.0605 23.2104 3.84171 22.9916C3.62292 22.7728 3.5 22.4761 3.5 22.1667V14C3.5 13.6906 3.62292 13.3938 3.84171 13.175C4.0605 12.9562 4.35725 12.8333 4.66667 12.8333H8.16667ZM8.16667 12.8333C9.40434 12.8333 10.5913 12.3417 11.4665 11.4665C12.3417 10.5913 12.8333 9.40434 12.8333 8.16666V7C12.8333 6.38116 13.0792 5.78767 13.5168 5.35008C13.9543 4.9125 14.5478 4.66666 15.1667 4.66666C15.7855 4.66666 16.379 4.9125 16.8166 5.35008C17.2542 5.78767 17.5 6.38116 17.5 7V12.8333H21C21.6188 12.8333 22.2123 13.0792 22.6499 13.5167C23.0875 13.9543 23.3333 14.5478 23.3333 15.1667L22.1667 21C21.9989 21.7157 21.6806 22.3303 21.2598 22.7511C20.8389 23.172 20.3383 23.3763 19.8333 23.3333H11.6667C10.7384 23.3333 9.84817 22.9646 9.19179 22.3082C8.53542 21.6518 8.16667 20.7616 8.16667 19.8333" stroke="#291F68" stroke-width="1.75" stroke-linecap="round" stroke-linejoin="round"/>
</g>
<defs>
<clipPath id="clip0_3_74">
<rect width="28" height="28" fill="white"/>
</clipPath>
</defs>
</svg>
