<svg width="32" height="32" viewBox="0 0 32 32" fill="none" xmlns="http://www.w3.org/2000/svg">
<g clip-path="url(#clip0_2_10)">
<path d="M20 28V23.3333C20 22 20.1333 21.4667 19.3333 20.6667C23.0667 20.2667 26.6667 18.8 26.6667 12.6667C26.665 11.0733 26.0434 9.54307 24.9333 8.4C25.454 7.01595 25.406 5.48217 24.8 4.13333C24.8 4.13333 23.3333 3.73333 20.1333 5.86666C17.423 5.16078 14.577 5.16078 11.8667 5.86666C8.66667 3.73333 7.2 4.13333 7.2 4.13333C6.59398 5.48217 6.54604 7.01595 7.06667 8.4C5.9566 9.54307 5.33496 11.0733 5.33333 12.6667C5.33333 18.8 8.93333 20.2667 12.6667 20.6667C11.8667 21.4667 11.8667 22.2667 12 23.3333V28M12 25.3333C6.26667 27.2 6.26667 22 4 21.3333L12 25.3333Z" stroke="#13143C" stroke-width="2" stroke-linecap="round" stroke-linejoin="round"/>
</g>
<defs>
<clipPath id="clip0_2_10">
<rect width="32" height="32" fill="white"/>
</clipPath>
</defs>
</svg>
