<svg width="32" height="32" viewBox="0 0 32 32" fill="none" xmlns="http://www.w3.org/2000/svg">
<g clip-path="url(#clip0_2_20)">
<path d="M24 5.33333H7.99999C6.52724 5.33333 5.33333 6.52724 5.33333 7.99999V24C5.33333 25.4728 6.52724 26.6667 7.99999 26.6667H24C25.4728 26.6667 26.6667 25.4728 26.6667 24V7.99999C26.6667 6.52724 25.4728 5.33333 24 5.33333Z" stroke="#13143C" stroke-width="2" stroke-linecap="round" stroke-linejoin="round"/>
<path d="M10.6667 14.6667V21.3333" stroke="#13143C" stroke-width="2" stroke-linecap="round" stroke-linejoin="round"/>
<path d="M10.6667 10.6667V10.68" stroke="#13143C" stroke-width="2" stroke-linecap="round" stroke-linejoin="round"/>
<path d="M16 21.3333V14.6667" stroke="#13143C" stroke-width="2" stroke-linecap="round" stroke-linejoin="round"/>
<path d="M21.3333 21.3333V17.3333C21.3333 16.6261 21.0524 15.9478 20.5523 15.4477C20.0522 14.9476 19.3739 14.6667 18.6667 14.6667C17.9594 14.6667 17.2811 14.9476 16.781 15.4477C16.281 15.9478 16 16.6261 16 17.3333" stroke="#13143C" stroke-width="2" stroke-linecap="round" stroke-linejoin="round"/>
</g>
<defs>
<clipPath id="clip0_2_20">
<rect width="32" height="32" fill="white"/>
</clipPath>
</defs>
</svg>
